<?xml version="1.0" encoding="UTF-8" standalone="no"?>
<svg
   xmlns:dc="http://purl.org/dc/elements/1.1/"
   xmlns:cc="http://creativecommons.org/ns#"
   xmlns:rdf="http://www.w3.org/1999/02/22-rdf-syntax-ns#"
   xmlns:svg="http://www.w3.org/2000/svg"
   xmlns="http://www.w3.org/2000/svg"
   width="500"
   height="180"
   viewBox="0 0 132.29166 47.625002"
   version="1.1"
   id="svg3062">
  <defs
     id="defs3056" />
  <metadata
     id="metadata3059">
    <rdf:RDF>
      <cc:Work
         rdf:about="">
        <dc:format>image/svg+xml</dc:format>
        <dc:type
           rdf:resource="http://purl.org/dc/dcmitype/StillImage" />
        <dc:title></dc:title>
      </cc:Work>
    </rdf:RDF>
  </metadata>
  <g
     id="layer1">
    <path
       style="fill:#59237f;fill-opacity:1;stroke:none;stroke-width:0.0740514px;stroke-linecap:butt;stroke-linejoin:miter;stroke-opacity:1"
       d="M 69.342357,1.4866596 V 46.70632 H 81.613761 V 1.4866596 Z"
       id="path5572" />
    <path
       id="path5574"
       style="fill:#5dbc5e;fill-opacity:1;stroke:none;stroke-width:0.0740514px;stroke-linecap:butt;stroke-linejoin:miter;stroke-opacity:1"
       d="M 38.320038,1.3194854 55.179917,24.012954 38.320038,46.706278 H 52.405014 L 69.261138,24.012954 52.405014,1.3194854 Z" />
    <path
       id="path5599-7"
       style="fill:#59237f;fill-opacity:1;stroke:none;stroke-width:0.0740514px;stroke-linecap:butt;stroke-linejoin:miter;stroke-opacity:1"
       d="M 102.00438,46.70632 V 30.943921 L 85.435345,1.4866596 h 13.244941 l 9.671354,17.7148044 9.67137,-17.7148044 h 13.24494 L 114.69892,30.943921 V 46.70632 Z" />
    <path
       style="fill:#59237f;fill-opacity:1;stroke:none;stroke-width:0.0740514px;stroke-linecap:butt;stroke-linejoin:miter;stroke-opacity:1"
       d="m 36.495214,33.297703 c 0.0042,-6.534023 -4.035412,-12.303727 -14.551926,-14.590435 -7.722227,-1.679117 -8.721415,-3.211031 -8.721415,-4.980328 0,-2.901643 4.120134,-3.200085 6.532403,-3.200085 6.154968,0 10.034117,2.321499 13.689166,4.476151 V 4.0954272 C 29.139148,1.4929522 24.132914,0.70158471 18.835252,0.66213321 3.4647908,1.545257 1.2149486,9.4445008 1.2149486,14.626137 c 0,8.402656 4.7813201,11.201888 13.6466394,13.990451 3.446591,1.084115 9.38213,1.641694 9.415126,5.262946 0.01825,1.999003 -1.848088,3.497007 -6.98247,3.662341 C 10.680061,37.754857 6.5266168,35.118227 2.2307184,32.773162 V 43.75087 c 4.6969628,2.376558 9.6221256,3.682743 15.2226776,3.682743 12.253654,0 19.036177,-5.698977 19.041818,-14.13591 z"
       id="path5623" />
  </g>
</svg>
